<mxfile host="app.diagrams.net" modified="2023-07-20T09:14:17.931Z" agent="Mozilla/5.0 (Windows NT 10.0; Win64; x64) AppleWebKit/537.36 (KHTML, like Gecko) Chrome/114.0.0.0 Safari/537.36" etag="Ez68x-m7IhjJX417vOZT" version="21.6.2" type="github">
  <diagram name="Page-1" id="WXAOybayTAALmpepY2wo">
    <mxGraphModel dx="1434" dy="796" grid="1" gridSize="10" guides="1" tooltips="1" connect="1" arrows="1" fold="1" page="1" pageScale="1" pageWidth="827" pageHeight="1169" math="0" shadow="0">
      <root>
        <mxCell id="0" />
        <mxCell id="1" parent="0" />
        <mxCell id="k7vR-5uxXJn0i2qsRFUV-3" value="" style="edgeStyle=orthogonalEdgeStyle;rounded=0;orthogonalLoop=1;jettySize=auto;html=1;" edge="1" parent="1" source="k7vR-5uxXJn0i2qsRFUV-1" target="k7vR-5uxXJn0i2qsRFUV-2">
          <mxGeometry relative="1" as="geometry" />
        </mxCell>
        <mxCell id="k7vR-5uxXJn0i2qsRFUV-1" value="UI" style="rounded=0;whiteSpace=wrap;html=1;" vertex="1" parent="1">
          <mxGeometry x="310" y="555" width="120" height="60" as="geometry" />
        </mxCell>
        <mxCell id="k7vR-5uxXJn0i2qsRFUV-5" value="" style="edgeStyle=orthogonalEdgeStyle;rounded=0;orthogonalLoop=1;jettySize=auto;html=1;" edge="1" parent="1" source="k7vR-5uxXJn0i2qsRFUV-2" target="k7vR-5uxXJn0i2qsRFUV-4">
          <mxGeometry relative="1" as="geometry" />
        </mxCell>
        <mxCell id="k7vR-5uxXJn0i2qsRFUV-2" value="Service Library" style="rounded=0;whiteSpace=wrap;html=1;" vertex="1" parent="1">
          <mxGeometry x="310" y="695" width="120" height="60" as="geometry" />
        </mxCell>
        <mxCell id="k7vR-5uxXJn0i2qsRFUV-7" value="" style="edgeStyle=orthogonalEdgeStyle;rounded=0;orthogonalLoop=1;jettySize=auto;html=1;" edge="1" parent="1" source="k7vR-5uxXJn0i2qsRFUV-4" target="k7vR-5uxXJn0i2qsRFUV-6">
          <mxGeometry relative="1" as="geometry" />
        </mxCell>
        <mxCell id="k7vR-5uxXJn0i2qsRFUV-4" value="Biztalk" style="rounded=0;whiteSpace=wrap;html=1;" vertex="1" parent="1">
          <mxGeometry x="310" y="835" width="120" height="60" as="geometry" />
        </mxCell>
        <mxCell id="k7vR-5uxXJn0i2qsRFUV-6" value="FIS" style="rounded=0;whiteSpace=wrap;html=1;" vertex="1" parent="1">
          <mxGeometry x="310" y="975" width="120" height="60" as="geometry" />
        </mxCell>
      </root>
    </mxGraphModel>
  </diagram>
</mxfile>
